<?xml version="1.0" encoding="UTF-8" standalone="no"?><!DOCTYPE svg PUBLIC "-//W3C//DTD SVG 1.1//EN" "http://www.w3.org/Graphics/SVG/1.1/DTD/svg11.dtd"><svg width="100%" height="100%" viewBox="0 0 40 40" version="1.1" xmlns="http://www.w3.org/2000/svg" xmlns:xlink="http://www.w3.org/1999/xlink" xml:space="preserve" xmlns:serif="http://www.serif.com/" style="fill-rule:evenodd;clip-rule:evenodd;stroke-linejoin:round;stroke-miterlimit:2;"><g><path d="M32.74,7.26c7.036,7.036 7.036,18.444 -0,25.48c-7.036,7.036 -18.444,7.036 -25.48,-0c-7.036,-7.036 -7.036,-18.444 0,-25.48c7.036,-7.036 18.444,-7.036 25.48,0Zm-4.154,4.154c-4.742,-4.742 -12.43,-4.742 -17.172,0c-4.742,4.742 -4.742,12.43 0,17.172c4.742,4.742 12.43,4.742 17.172,-0c4.742,-4.742 4.742,-12.43 -0,-17.172Z" style="fill:#ced0d6;fill-rule:nonzero;"/><path d="M24.74,15.26c2.617,2.618 2.617,6.862 -0,9.48c-2.618,2.618 -6.862,2.618 -9.48,-0c-2.618,-2.618 -2.618,-6.862 0,-9.48c2.618,-2.617 6.862,-2.617 9.48,0Z" style="fill:#ced0d6;fill-rule:nonzero;"/></g></svg>